<svg version="1.1" id="_x32_" xmlns="http://www.w3.org/2000/svg" xmlns:xlink="http://www.w3.org/1999/xlink" x="0px" y="0px" viewBox="0 0 512 512" style="width: 256px; height: 256px; opacity: 1;" xml:space="preserve"><rect id="backgroundrect" width="100%" height="100%" x="0" y="0" fill="none" stroke="none"/>















<g class="currentLayer" style=""><title>Layer 1</title><g id="svg_1" class="">
	<path d="M372.0612791960833,221.03149216919746 h-43.15256624650955 H242.6064263218043 v-64.72778217029571 C242.6064263218043,108.72795768814882 203.90194746047234,70.00000043850741 156.30413969403483,70.00000043850741 C108.71700392228342,70.00000043850741 70.00043013364052,108.72795768814882 70.00043013364052,156.3037099989017 v64.72778217029571 h43.15114331388474 v-64.72778217029571 c0,-23.80922014474869 19.355441029071805,-43.15256624650955 43.15256624650955,-43.15256624650955 c23.787876155376434,0 43.15114331388474,19.343346101760865 43.15114331388474,43.15256624650955 v64.72778217029571 c-23.829141201496125,0 -43.15114331388474,19.322002112388613 -43.15114331388474,43.149008914947515 v107.87892548418044 c0,23.834121465682983 19.322002112388613,43.15256624650955 43.15114331388474,43.15256624650955 h172.60599618816374 c23.82771826887131,0 43.14972038125992,-19.318444780826567 43.14972038125992,-43.15256624650955 V264.1805010841449 C415.21242250996806,240.3527828152736 395.889708931267,221.03149216919746 372.0612791960833,221.03149216919746 zM296.5476677296755,325.599253435429 v35.67220943784714 c0,5.963510630607605 -4.828010396003723,10.787963695049285 -10.791521026611328,10.787963695049285 c-5.959953299045563,0 -10.784406363487243,-4.8244530644416805 -10.784406363487243,-10.787963695049285 v-35.67220943784714 c-6.322801118373871,-3.7487160000801087 -10.788675161361693,-10.366064171791077 -10.788675161361693,-18.265474638462067 c0,-11.92773272752762 9.648906128883361,-21.57663885641098 21.573081524848938,-21.57663885641098 c11.92773272752762,0 21.579484721660613,9.648906128883361 21.579484721660613,21.57663885641098 C307.33563142472485,315.2331892636379 302.86691151648733,321.8512489016612 296.5476677296755,325.599253435429 z" id="svg_2"/>
</g><g id="svg_3">
</g><g id="svg_4">
</g><g id="svg_5">
</g><g id="svg_6">
</g><g id="svg_7">
</g><g id="svg_8">
</g><g id="svg_9">
</g><g id="svg_10">
</g><g id="svg_11">
</g><g id="svg_12">
</g><g id="svg_13">
</g><g id="svg_14">
</g><g id="svg_15">
</g><g id="svg_16">
</g><g id="svg_17">
</g></g></svg>
