<svg version="1.1" id="_x32_" xmlns="http://www.w3.org/2000/svg" xmlns:xlink="http://www.w3.org/1999/xlink" x="0px" y="0px" viewBox="0 0 512 512" style="width: 256px; height: 256px; opacity: 1;" xml:space="preserve"><rect id="backgroundrect" width="100%" height="100%" x="0" y="0" fill="none" stroke="none"/>














<g class="currentLayer" style=""><title>Layer 1</title><g id="svg_1" class="">
	<path d="M347.24164392419215,232.28141414114515 v-70.97790034887166 C347.24164392419215,109.13384424217284 304.80141880297305,66.6663133271112 252.60600379010668,66.6663133271112 c-52.18059186763759,0 -94.6356401340855,42.467530915061666 -94.6356401340855,94.63720046516222 v70.97790034887166 c-26.133985203966926,0 -47.31938039811947,21.187735690767624 -47.31938039811947,47.315479570427684 v118.29572041591443 c0,26.135545535043647 21.185395194152544,47.31938039811947 47.31938039811947,47.31938039811947 h189.271280268171 c26.12852404519841,0 47.31938039811947,-21.183834863075827 47.31938039811947,-47.31938039811947 V279.5968937115728 C394.56180448784994,253.46836966637431 373.37016796939054,232.28141414114515 347.24164392419215,232.28141414114515 zM264.4364340137902,346.9462441415344 v39.116719927807566 c0,6.539347542529428 -5.29030251561585,11.829650058145278 -11.829650058145278,11.829650058145278 c-6.539347542529428,0 -11.830430223683639,-5.29030251561585 -11.830430223683639,-11.829650058145278 v-39.116719927807566 c-6.9434732913996555,-4.110692221616268 -11.828089727068562,-11.367011893898088 -11.828089727068562,-20.02918986630375 c0,-13.079475250597216 10.593867845383812,-23.660080281828918 23.657739785213842,-23.660080281828918 c13.063871939830028,0 23.659300116290556,10.5806050312317 23.659300116290556,23.660080281828918 C276.26608407193555,335.5792322476363 271.37600647749815,342.83633208545643 264.4364340137902,346.9462441415344 zM299.92226352607264,232.28141414114515 h-94.63407980300879 v-70.97790034887166 c0,-26.108239741201068 21.220502643378722,-47.31938039811947 47.31782006704275,-47.31938039811947 c26.084834775050282,0 47.315479570427684,21.21114065691841 47.315479570427684,47.31938039811947 V232.28141414114515 z" id="svg_2"/>
</g><g id="svg_3">
</g><g id="svg_4">
</g><g id="svg_5">
</g><g id="svg_6">
</g><g id="svg_7">
</g><g id="svg_8">
</g><g id="svg_9">
</g><g id="svg_10">
</g><g id="svg_11">
</g><g id="svg_12">
</g><g id="svg_13">
</g><g id="svg_14">
</g><g id="svg_15">
</g><g id="svg_16">
</g><g id="svg_17">
</g></g></svg>
