<svg version="1.1" id="_x32_" xmlns="http://www.w3.org/2000/svg" xmlns:xlink="http://www.w3.org/1999/xlink" x="0px" y="0px" viewBox="0 0 512 512" style="width: 256px; height: 256px; opacity: 1;" xml:space="preserve"><rect id="backgroundrect" width="100%" height="100%" x="0" y="0" fill="none" stroke="none"/>













<g class="currentLayer" style=""><title>Layer 1</title><g id="svg_1" class="">
	<g id="svg_2">
		<path d="M472.45080365006993,226.51928296057213 c-9.273040453866283,-9.357650658000725 -20.306151478658876,-14.143853939504222 -33.088878688296745,-14.143853939504222 s-23.56343948476008,4.570696481724476 -32.8424538735298,13.875033610860005 c-9.273040453866283,9.303586234362783 -13.787095015278886,20.43560124036991 -13.787095015278886,33.28866706551822 c0,12.853065825148324 4.449834761200611,23.77032492614917 13.536189749334365,33.02059763164675 c9.208820653654296,9.357650658000725 20.306151478658876,13.875033610860005 33.09335913947433,13.875033610860005 s23.815838234430462,-4.5714473764972245 33.088878688296745,-13.875033610860005 c9.273787195729215,-9.357650658000725 13.787841757141818,-20.16678091172568 13.787841757141818,-33.02059763164675 C486.23864540721183,246.68606387229784 481.7245908457995,235.8228691949348 472.45080365006993,226.51928296057213 z" id="svg_3"/>
		<path d="M382.95603160348344,349.77941080212867 c-12.032998379256027,0 -22.060994856544667,4.0330558244360395 -30.334894697810444,12.36873869672508 c-8.27315309940285,8.2816184486511 -12.283903645200548,18.123596235075066 -12.283903645200548,29.955445169284456 c0,11.884411568301836 3.9465307455857084,21.99520968337002 12.283903645200548,30.546399355438083 c8.209680041053792,8.335682872289043 18.301896318554423,12.314674273087135 30.334894697810444,12.314674273087135 c11.781346371448574,0 21.557690840929762,-4.0330558244360395 29.83159068219554,-12.314674273087135 c8.5248051072103,-8.604503200933262 12.787207660815447,-18.66198778713625 12.787207660815447,-30.546399355438083 c0,-11.83184893420939 -4.32139516077663,-21.61901140222266 -12.787207660815447,-29.955445169284456 C404.4495026442011,353.86653105020275 394.73737797493186,349.77941080212867 382.95603160348344,349.77941080212867 z" id="svg_4"/>
		<path d="M389.2241828009185,181.12994663219996 c13.787095015278886,0 25.82009339453491,-5.055023610147718 35.848089871823554,-15.111757301577963 c10.027996477288642,-10.110047220295442 15.039381119412708,-22.21071648314905 15.039381119412708,-36.300505999015336 c0,-14.359360739283252 -5.016611835164575,-26.459279107364118 -15.039381119412708,-36.569326327659546 c-9.77634446948119,-9.84122689165122 -21.80934284873722,-14.842936972933742 -35.848089871823554,-14.842936972933742 c-14.290399030893798,0 -26.32339741014982,5.001710081282527 -36.09974187963101,14.842936972933742 c-10.027996477288642,10.110047220295442 -15.039381119412708,22.21071648314905 -15.039381119412708,36.569326327659546 c0,14.089789515866281 5.016611835164575,26.189707883947143 15.039381119412708,36.300505999015336 C363.1516906567134,176.07492302205256 375.1854357778328,181.12994663219996 389.2241828009185,181.12994663219996 z" id="svg_5"/>
		<path d="M250.5900624642153,404.47158247008997 c-10.530553751040616,0 -19.61690873917437,3.7109219669266262 -27.071632756805798,11.347521805786146 c-7.3322583521108955,7.475157462718439 -11.027883831752078,16.61730132094014 -11.027883831752078,27.480495998303045 c0,10.594374348718683 3.7008526726816964,19.73651820694038 11.027883831752078,26.94360623578735 c7.460697952534872,7.421093039080498 16.547052940668625,11.132015006007121 27.071632756805798,11.132015006007121 c10.781459016985139,0 19.740121146557843,-3.8723643430677073 27.07237949866873,-11.132015006007121 c7.459951210671942,-7.367779510215306 11.2787890976966,-16.348480992295922 11.2787890976966,-26.94360623578735 c0,-10.8631946773629 -3.7598452798531787,-20.166030016952934 -11.2787890976966,-27.749316326947255 C270.3944034109854,408.2365688606545 261.3722682230632,404.47158247008997 250.5900624642153,404.47158247008997 z" id="svg_6"/>
		<path d="M250.5900624642153,20.547345005916327 c-15.290286385357227,0 -28.32914605398013,5.32384393879194 -39.10537787792476,16.133725087289644 c-10.781459016985139,10.8631946773629 -16.04449566691666,23.716260502511226 -16.04449566691666,39.09683813273341 c0,15.380577630222183 5.262289908068586,28.717970583793754 16.04449566691666,39.58041436638389 c10.781459016985139,10.809881148497707 23.815091492567525,16.133725087289644 39.10537787792476,16.133725087289644 c15.290286385357227,0 28.32914605398013,-5.32384393879194 39.10537787792476,-16.133725087289644 c10.781459016985139,-10.8631946773629 16.295400932861174,-24.20058763093447 16.295400932861174,-39.58041436638389 s-5.513941915876039,-28.233643455370512 -16.295400932861174,-39.09683813273341 C278.9192085181956,25.871188944708607 265.88034884957244,20.547345005916327 250.5900624642153,20.547345005916327 z" id="svg_7"/>
		<path d="M118.47574533275466,155.15499465325965 c6.770708471187439,0 13.02840528254188,-2.2586914764296417 18.049497568884036,-7.313715086577359 c10.03322367032915,-10.056733691430244 10.03322367032915,-26.459279107364118 0,-36.5152619040216 c-5.02183902820509,-5.055023610147718 -11.2787890976966,-7.313715086577359 -18.049497568884036,-7.313715086577359 c-6.5190564633799895,0 -12.696105153537976,2.312755900067585 -17.798592302939518,7.313715086577359 c-10.444678436803652,10.16411164393338 -10.444678436803652,26.351150260088232 0,36.5152619040216 C105.77964017921678,152.84298964796452 111.96191606241518,155.15499465325965 118.47574533275466,155.15499465325965 z" id="svg_8"/>
		<path d="M118.47574533275466,355.0499412120552 c-9.273040453866283,0 -17.172822621804073,3.656857543288682 -24.066743500374972,10.37886754893966 c-6.642268870763457,6.3991252533688145 -10.027996477288642,14.358609844510497 -10.027996477288642,23.662946973646033 c0,9.356899763227979 3.257288006101205,17.4237623068728 10.027996477288642,24.20058763093447 c6.770708471187439,6.830138852926864 14.792956304645765,10.325554020074463 24.066743500374972,10.325554020074463 c9.273787195729215,0 17.296035029187543,-3.4954151671475997 24.066743500374972,-10.325554020074463 c6.770708471187439,-6.776074429288921 10.027996477288642,-14.843687867706494 10.027996477288642,-24.20058763093447 c0,-9.304337129135533 -3.384980864662256,-17.263070825504467 -10.027996477288642,-23.662946973646033 C135.64856795455896,358.7067987553438 127.75550646338712,355.0499412120552 118.47574533275466,355.0499412120552 z" id="svg_9"/>
		<path d="M79.87367147044506,238.35038100000827 c-5.7655939236834906,-5.808171067215183 -12.536302394870932,-8.819259105939539 -20.80945549427378,-8.819259105939539 s-15.541191651301748,3.011088038724354 -21.306785574985245,8.819259105939539 S29.232625293975516,251.20344682515713 29.232625293975516,259.53837880267304 c0,8.2816184486511 2.7592111835268107,15.59608443000121 8.5248051072103,21.40425549721639 c5.7655939236834906,5.807420172442433 13.033632475582392,8.604503200933262 21.306785574985245,8.604503200933262 s15.038634377549771,-2.7970830284908277 20.80945549427378,-8.604503200933262 c5.76484718182056,-5.808171067215183 8.775710373154824,-13.122637048565291 8.775710373154824,-21.40425549721639 C88.64415465055944,251.20344682515713 85.63851865226587,244.1578011724506 79.87367147044506,238.35038100000827 z" id="svg_10"/>
	</g>
</g><g id="svg_11">
</g><g id="svg_12">
</g><g id="svg_13">
</g><g id="svg_14">
</g><g id="svg_15">
</g><g id="svg_16">
</g><g id="svg_17">
</g><g id="svg_18">
</g><g id="svg_19">
</g><g id="svg_20">
</g><g id="svg_21">
</g><g id="svg_22">
</g><g id="svg_23">
</g><g id="svg_24">
</g><g id="svg_25">
</g></g></svg>
